<svg width="800" height="800" viewBox="0 0 800 800" fill="none" xmlns="http://www.w3.org/2000/svg">
<path d="M676.43 723.57C689.447 736.587 710.553 736.587 723.57 723.57C736.587 710.553 736.587 689.447 723.57 676.43L676.43 723.57ZM123.57 76.4297C110.553 63.4124 89.4472 63.4124 76.4296 76.4297C63.4122 89.4474 63.4122 110.553 76.4296 123.57L123.57 76.4297ZM666.667 433.333C666.667 451.743 681.59 466.667 700 466.667C718.41 466.667 733.333 451.743 733.333 433.333H666.667ZM733.333 366.667C733.333 348.257 718.41 333.333 700 333.333C681.59 333.333 666.667 348.257 666.667 366.667H733.333ZM600 633.333C618.41 633.333 633.333 618.41 633.333 600C633.333 581.59 618.41 566.667 600 566.667V633.333ZM200 233.333C218.409 233.333 233.333 218.409 233.333 200C233.333 181.591 218.409 166.667 200 166.667V233.333ZM566.667 633.333C585.077 633.333 600 618.41 600 600C600 581.59 585.077 566.667 566.667 566.667V633.333ZM500 566.667C481.59 566.667 466.667 581.59 466.667 600C466.667 618.41 481.59 633.333 500 633.333V566.667ZM388.347 166.667C369.937 166.667 355.013 181.591 355.013 200C355.013 218.409 369.937 233.333 388.347 233.333V166.667ZM633.347 478C633.347 496.41 648.27 511.333 666.68 511.333C685.09 511.333 700.013 496.41 700.013 478H633.347ZM723.57 676.43L123.57 76.4297L76.4296 123.57L676.43 723.57L723.57 676.43ZM733.333 433.333V366.667H666.667V433.333H733.333ZM600 566.667H206.667V633.333H600V566.667ZM133.333 493.333V300H66.6666V493.333H133.333ZM206.667 566.667C187.448 566.667 175.039 566.64 165.595 565.87C156.539 565.13 153.182 563.873 151.534 563.033L121.268 622.433C133.88 628.86 146.988 631.237 160.166 632.313C172.955 633.36 188.548 633.333 206.667 633.333V566.667ZM66.6666 493.333C66.6666 511.453 66.6406 527.047 67.6856 539.833C68.7622 553.013 71.1396 566.12 77.5659 578.733L136.966 548.467C136.127 546.817 134.871 543.46 134.131 534.407C133.359 524.96 133.333 512.553 133.333 493.333H66.6666ZM151.534 563.033C145.262 559.837 140.162 554.74 136.966 548.467L77.5659 578.733C87.1532 597.55 102.451 612.847 121.268 622.433L151.534 563.033ZM133.333 300C133.333 284.013 133.351 273.691 133.89 265.792C134.409 258.192 135.296 255.298 135.871 253.911L74.2786 228.398C69.7786 239.263 68.1282 250.26 67.3782 261.254C66.6486 271.949 66.6666 284.925 66.6666 300H133.333ZM200 166.667C184.925 166.667 171.949 166.649 161.254 167.378C150.26 168.128 139.263 169.779 128.398 174.279L153.911 235.871C155.298 235.296 158.192 234.409 165.792 233.89C173.691 233.351 184.013 233.333 200 233.333V166.667ZM135.871 253.911C139.254 245.743 145.743 239.254 153.911 235.871L128.398 174.279C103.896 184.428 84.4279 203.896 74.2786 228.398L135.871 253.911ZM566.667 566.667H500V633.333H566.667V566.667ZM388.347 233.333H600.013V166.667H388.347V233.333ZM633.347 266.667V478H700.013V266.667H633.347ZM600.013 233.333C618.423 233.333 633.347 248.257 633.347 266.667H700.013C700.013 211.438 655.24 166.667 600.013 166.667V233.333Z" fill="#F38BA8"/>
</svg>
