<svg width="800" height="800" viewBox="0 0 800 800" fill="none" xmlns="http://www.w3.org/2000/svg">
<path d="M250 333.333V466.667M383.333 333.333V466.667M700 433.333V366.667M206.667 600H560C597.337 600 616.007 600 630.267 592.733C642.81 586.343 653.01 576.143 659.4 563.6C666.667 549.34 666.667 530.67 666.667 493.333V306.667C666.667 269.33 666.667 250.661 659.4 236.401C653.01 223.856 642.81 213.658 630.267 207.266C616.007 200 597.337 200 560 200H206.667C169.33 200 150.661 200 136.401 207.266C123.856 213.658 113.658 223.856 107.266 236.401C100 250.661 100 269.33 100 306.667V493.333C100 530.67 100 549.34 107.266 563.6C113.658 576.143 123.856 586.343 136.401 592.733C150.661 600 169.33 600 206.667 600Z" stroke="#F9E2AF" stroke-width="66.6667" stroke-linecap="round" stroke-linejoin="round"/>
</svg>
