<svg width="800" height="800" viewBox="0 0 800 800" fill="none" xmlns="http://www.w3.org/2000/svg">
<g clip-path="url(#clip0_4_15)">
<path d="M3.30975e-05 400C3.30975e-05 412.326 4.2667 422.993 12.8 432C21.3334 441.007 32 445.274 44.8 444.8H88.8889C101.215 444.8 111.644 440.533 120.178 432C128.711 423.467 133.215 412.8 133.689 400C134.163 387.2 129.659 376.77 120.178 368.711C110.696 360.652 100.267 356.385 88.8889 355.911H44.8C32.4741 355.911 21.8074 360.178 12.8 368.711C3.79263 377.244 -0.474041 387.674 3.30975e-05 400ZM91.0223 619.733C91.0223 632.059 95.526 642.726 104.533 651.733C113.541 660.741 123.97 665.007 135.822 664.533C147.674 664.059 158.104 659.793 167.111 651.733L198.4 620.444C207.407 611.437 211.911 601.007 211.911 589.156C211.911 577.304 207.407 566.874 198.4 557.867C189.393 548.859 178.963 544.356 167.111 544.356C155.259 544.356 144.83 548.859 135.822 557.867L104.533 589.156C95.526 597.689 91.0223 607.882 91.0223 619.733ZM91.0223 180.267C91.0223 192.593 95.526 203.022 104.533 211.556L135.822 242.845C144.356 251.378 154.785 255.644 167.111 255.644C179.437 255.644 189.867 251.378 198.4 242.845C206.933 234.311 211.437 223.882 211.911 211.556C212.385 199.23 207.882 188.8 198.4 180.267L167.111 148.978C158.578 139.97 148.148 135.467 135.822 135.467C123.496 135.467 113.067 139.97 104.533 148.978C96 157.985 91.4963 168.415 91.0223 180.267ZM177.778 400C177.778 449.304 195.082 491.259 229.689 525.867C264.296 560.474 306.252 577.778 355.556 577.778C404.859 577.778 446.815 560.474 481.422 525.867C516.03 491.259 533.333 449.304 533.333 400C533.333 350.696 516.03 308.978 481.422 274.845C446.815 240.711 404.859 223.17 355.556 222.222C306.252 221.274 264.296 238.815 229.689 274.845C195.082 310.874 177.778 352.593 177.778 400ZM266.667 400C266.667 375.822 275.437 354.963 292.978 337.422C310.519 319.882 331.378 311.111 355.556 311.111C379.733 311.111 400.593 319.882 418.133 337.422C435.674 354.963 444.444 375.822 444.444 400C444.444 424.178 435.674 445.274 418.133 463.289C400.593 481.304 379.733 489.837 355.556 488.889C331.378 487.941 310.519 479.407 292.978 463.289C275.437 447.17 266.667 426.074 266.667 400ZM311.467 666.667V711.467C311.467 723.793 315.733 734.222 324.267 742.756C332.8 751.289 343.23 755.556 355.556 755.556C367.882 755.556 378.311 751.289 386.844 742.756C395.378 734.222 399.882 723.793 400.356 711.467V666.667C400.356 654.341 395.852 643.911 386.844 635.378C377.837 626.844 367.407 622.578 355.556 622.578C343.704 622.578 333.274 626.844 324.267 635.378C315.259 643.911 310.993 654.341 311.467 666.667ZM311.467 133.333C311.467 145.659 315.733 156.326 324.267 165.333C332.8 174.341 343.23 178.607 355.556 178.133C367.882 177.659 378.311 173.393 386.844 165.333C395.378 157.274 399.882 146.607 400.356 133.333V89.2445C400.356 76.9186 395.852 66.4889 386.844 57.9556C377.837 49.4223 367.407 44.9186 355.556 44.4445C343.704 43.9704 333.274 48.4741 324.267 57.9556C315.259 67.4371 310.993 77.8667 311.467 89.2445V133.333ZM499.911 589.156C499.911 601.007 504.178 611.437 512.711 620.444L544 651.733C552.533 660.267 562.963 664.533 575.289 664.533C587.615 664.533 598.281 660.267 607.289 651.733C616.296 643.2 620.563 632.533 620.089 619.733C619.615 606.933 615.348 596.741 607.289 589.156L576 557.867C566.993 548.859 556.326 544.356 544 544.356C531.674 544.356 521.244 548.859 512.711 557.867C504.178 566.874 499.911 577.304 499.911 589.156ZM499.911 211.556C499.911 223.882 504.178 234.311 512.711 242.845C521.244 251.378 531.674 255.644 544 255.644C556.326 255.644 566.993 251.378 576 242.845L607.289 211.556C615.822 203.022 620.089 192.593 620.089 180.267C620.089 167.941 615.822 157.511 607.289 148.978C598.756 140.445 588.089 135.941 575.289 135.467C562.489 134.993 552.059 139.496 544 148.978L512.711 180.267C504.178 188.8 499.911 199.23 499.911 211.556ZM578.133 400C578.133 412.326 582.4 422.993 590.933 432C599.467 441.007 609.896 445.274 622.222 444.8H667.022C678.874 444.8 689.304 440.533 698.311 432C707.319 423.467 711.585 412.8 711.111 400C710.637 387.2 706.37 376.77 698.311 368.711C690.252 360.652 679.822 356.385 667.022 355.911H622.222C609.896 355.911 599.467 360.178 590.933 368.711C582.4 377.244 578.133 387.674 578.133 400Z" fill="#CBA6F7"/>
</g>
<defs>
<clipPath id="clip0_4_15">
<rect width="800" height="800" fill="white"/>
</clipPath>
</defs>
</svg>
