<svg width="800" height="800" viewBox="0 0 800 800" fill="none" xmlns="http://www.w3.org/2000/svg">
<path d="M525 96.8521C525.006 90.2257 527.643 83.8728 532.331 79.1893C537.018 74.5059 543.374 71.8751 550 71.875H550.024C582.917 71.9514 615.216 80.6492 643.699 97.1012C672.182 113.553 695.855 137.184 712.357 165.639C714 168.482 715.067 171.622 715.497 174.878C715.927 178.134 715.711 181.443 714.862 184.615C714.013 187.788 712.547 190.762 710.547 193.368C708.548 195.974 706.055 198.16 703.211 199.802C700.367 201.444 697.227 202.51 693.97 202.938C690.714 203.366 687.405 203.149 684.233 202.298C681.061 201.447 678.087 199.979 675.483 197.979C672.878 195.978 670.693 193.484 669.052 190.639C656.946 169.769 639.581 152.437 618.687 140.371C597.794 128.306 574.103 121.928 549.976 121.875C543.345 121.869 536.989 119.229 532.306 114.536C527.622 109.843 524.994 103.482 525 96.8521ZM715.61 533.64C701.519 586.165 672.172 633.334 631.28 669.185C590.388 705.036 539.785 727.959 485.867 735.058C431.95 742.156 377.138 733.11 328.36 709.065C279.582 685.019 239.028 647.052 211.823 599.963L80.5725 372.632C73.1872 359.849 69.1572 345.405 68.8579 330.646C68.5586 315.886 71.9998 301.291 78.8609 288.219C85.722 275.148 95.7799 264.025 108.098 255.888C120.415 247.751 134.592 242.864 149.307 241.681L138.828 223.529C128.413 205.473 124.785 184.293 128.597 163.8C132.408 143.307 143.409 124.848 159.619 111.744C175.829 98.6405 196.184 91.7528 217.021 92.3209C237.857 92.8889 257.807 100.875 273.279 114.843C281.201 101.914 292.348 91.2663 305.627 83.9446C318.905 76.6228 333.859 72.8784 349.021 73.0787C364.182 73.2789 379.032 77.417 392.112 85.0869C405.193 92.7568 416.055 103.695 423.633 116.829L477.831 210.704C486.227 198.563 497.557 188.743 510.767 182.155C523.977 175.568 538.638 172.428 553.388 173.028C568.137 173.627 582.495 177.947 595.127 185.584C607.759 193.222 618.254 203.929 625.638 216.711L688.135 324.963C706.286 356.202 718.06 390.73 722.776 426.549C727.492 462.369 725.056 498.768 715.61 533.64ZM644.836 349.963L582.336 241.712C579.878 237.439 576.601 233.694 572.694 230.689C568.787 227.684 564.326 225.479 559.566 224.2C554.806 222.921 549.84 222.592 544.953 223.234C540.066 223.875 535.353 225.474 531.084 227.939C526.816 230.403 523.074 233.685 520.075 237.596C517.076 241.507 514.877 245.972 513.604 250.734C512.332 255.496 512.011 260.462 512.659 265.348C513.307 270.234 514.912 274.945 517.383 279.21L548.633 333.337C549.05 334.06 549.43 334.802 549.773 335.563C550.023 336.116 550.227 336.679 550.435 337.242C550.51 337.444 550.601 337.641 550.67 337.844C550.903 338.535 551.094 339.231 551.265 339.931C551.285 340.018 551.315 340.102 551.337 340.189C551.503 340.909 551.628 341.632 551.73 342.357C551.741 342.435 551.761 342.512 551.772 342.591C551.862 343.283 551.91 343.977 551.942 344.67C551.947 344.791 551.965 344.911 551.97 345.033C551.99 345.671 551.968 346.306 551.939 346.942C551.932 347.124 551.939 347.305 551.927 347.487C551.888 348.084 551.807 348.675 551.724 349.266C551.694 349.484 551.683 349.704 551.647 349.922C551.529 350.631 551.37 351.332 551.193 352.029C551.169 352.122 551.157 352.216 551.132 352.309C551.106 352.404 551.068 352.493 551.042 352.588C550.849 353.278 550.635 353.963 550.383 354.635C550.313 354.821 550.223 354.996 550.15 355.18C549.918 355.756 549.681 356.329 549.408 356.887C549.341 357.021 549.262 357.146 549.193 357.279C548.886 357.875 548.569 358.465 548.213 359.036C548.172 359.102 548.125 359.163 548.084 359.228C547.688 359.852 547.272 360.462 546.82 361.052L546.765 361.117C546.288 361.736 545.78 362.335 545.241 362.914L545.191 362.963C544.653 363.534 544.091 364.085 543.494 364.609C543.396 364.695 543.288 364.769 543.188 364.853C542.67 365.295 542.14 365.73 541.577 366.134C540.902 366.62 540.204 367.072 539.484 367.488C516.515 380.749 499.755 402.59 492.89 428.208C486.025 453.826 489.618 481.122 502.878 504.091C506.193 509.833 507.092 516.656 505.376 523.06C503.66 529.465 499.47 534.925 493.729 538.24C487.987 541.555 481.163 542.454 474.759 540.738C468.355 539.022 462.895 534.833 459.58 529.091C441.86 498.387 435.582 462.401 441.857 427.511C448.132 392.621 466.556 361.078 493.863 338.472L474.084 304.211L474.077 304.198L380.334 141.83C375.362 133.217 367.171 126.932 357.564 124.358C347.957 121.783 337.721 123.131 329.108 128.104C320.494 133.076 314.209 141.267 311.635 150.874C309.06 160.481 310.408 170.717 315.381 179.33L396.628 320.061C399.943 325.803 400.841 332.627 399.125 339.031C397.409 345.436 393.219 350.896 387.477 354.211C381.735 357.527 374.911 358.425 368.506 356.709C362.102 354.993 356.641 350.803 353.326 345.061L272.076 204.33L272.027 204.242L247.079 161.029C242.102 152.425 233.913 146.148 224.31 143.579C214.707 141.01 204.478 142.359 195.869 147.329C187.26 152.299 180.977 160.483 178.4 170.083C175.823 179.684 177.163 189.915 182.126 198.528L232.117 285.114L232.126 285.13L300.876 404.212C302.664 407.272 303.777 410.679 304.141 414.204C304.505 417.73 304.111 421.293 302.986 424.654C301.861 428.015 300.031 431.096 297.618 433.692C295.205 436.288 292.265 438.339 288.995 439.706C288.725 439.821 288.454 439.919 288.182 440.024C287.492 440.29 286.797 440.524 286.096 440.725C285.817 440.805 285.541 440.889 285.26 440.959C284.394 441.177 283.516 441.349 282.631 441.473C282.553 441.484 282.475 441.504 282.397 441.514C281.433 441.633 280.462 441.695 279.491 441.701C279.411 441.701 279.33 441.716 279.251 441.716C279.086 441.716 278.925 441.687 278.76 441.684C278.001 441.669 277.247 441.62 276.497 441.538C276.228 441.508 275.961 441.481 275.694 441.443C274.795 441.317 273.904 441.142 273.024 440.92C272.963 440.904 272.9 440.896 272.839 440.88C271.897 440.626 270.969 440.318 270.062 439.956C269.829 439.864 269.604 439.759 269.374 439.661C268.684 439.365 268.009 439.039 267.348 438.682C267.11 438.554 266.873 438.43 266.638 438.294C265.809 437.817 265.007 437.293 264.238 436.724L264.183 436.686C263.391 436.082 262.635 435.431 261.92 434.737C261.732 434.555 261.552 434.362 261.369 434.174C260.829 433.621 260.313 433.04 259.821 432.431C259.65 432.219 259.476 432.012 259.311 431.793C258.679 430.969 258.099 430.107 257.574 429.211L188.824 310.132C183.847 301.527 175.657 295.25 166.054 292.681C156.451 290.113 146.222 291.462 137.613 296.432C129.004 301.403 122.721 309.588 120.145 319.189C117.569 328.79 118.91 339.021 123.874 347.633L255.124 574.963C284.968 626.627 334.111 664.322 391.745 679.758C449.378 695.194 510.783 687.106 562.454 657.274C614.125 627.442 651.832 578.308 667.281 520.678C682.73 463.048 674.657 401.642 644.836 349.963ZM267.664 729.465C228.289 702.204 195.489 666.506 171.649 624.971C170.008 622.128 167.822 619.636 165.218 617.638C162.613 615.639 159.64 614.173 156.469 613.324C153.298 612.474 149.991 612.258 146.736 612.686C143.481 613.115 140.343 614.18 137.5 615.822C134.657 617.463 132.165 619.649 130.167 622.253C128.168 624.858 126.702 627.83 125.853 631.002C125.003 634.173 124.787 637.48 125.215 640.735C125.644 643.989 126.709 647.128 128.351 649.971C155.867 697.904 193.727 739.098 239.172 770.554C241.87 772.426 244.911 773.748 248.12 774.445C251.329 775.142 254.644 775.2 257.875 774.615C261.106 774.031 264.191 772.816 266.953 771.039C269.714 769.262 272.099 766.959 273.97 764.26C275.841 761.561 277.162 758.521 277.858 755.311C278.554 752.102 278.611 748.787 278.025 745.556C277.439 742.325 276.223 739.24 274.445 736.48C272.667 733.719 270.363 731.335 267.664 729.465Z" fill="#94A0FF"/>
</svg>
