<svg width="800" height="800" viewBox="0 0 800 800" fill="none" xmlns="http://www.w3.org/2000/svg">
<path fill-rule="evenodd" clip-rule="evenodd" d="M285.432 162.3C318.17 136.109 366.667 159.418 366.667 201.343V598.657C366.667 640.58 318.17 663.89 285.432 637.7L154.974 533.333H100C44.7717 533.333 0 488.56 0 433.333V366.667C0 311.437 44.7717 266.666 100 266.666H154.974L285.432 162.3ZM300 236.02L196.62 318.724C184.799 328.181 170.112 333.333 154.974 333.333H100C81.5907 333.333 66.6667 348.257 66.6667 366.667V433.333C66.6667 451.743 81.5907 466.667 100 466.667H154.974C170.112 466.667 184.799 471.817 196.62 481.273L300 563.98V236.02Z" fill="#A6E3A1"/>
</svg>
