<svg width="800" height="800" viewBox="0 0 800 800" fill="none" xmlns="http://www.w3.org/2000/svg">
<path fill-rule="evenodd" clip-rule="evenodd" d="M616.177 76.4296C629.193 63.4123 650.3 63.4123 663.317 76.4296C845.56 258.674 845.56 554.15 663.317 736.397C650.3 749.413 629.193 749.413 616.177 736.397C603.16 723.38 603.16 702.273 616.177 689.257C772.387 533.047 772.387 279.78 616.177 123.57C603.16 110.553 603.16 89.4473 616.177 76.4296ZM569.037 170.709C556.02 157.691 534.913 157.691 521.897 170.709C508.88 183.726 508.88 204.832 521.897 217.849C626.037 321.989 626.037 490.833 521.897 594.973C508.88 607.99 508.88 629.097 521.897 642.113C534.913 655.13 556.02 655.13 569.037 642.113C699.213 511.94 699.213 300.884 569.037 170.709ZM474.753 264.992C461.737 251.974 440.63 251.974 427.613 264.992C414.597 278.009 414.597 299.115 427.613 312.132C479.683 364.203 479.683 448.623 427.613 500.693C414.597 513.71 414.597 534.817 427.613 547.833C440.63 560.853 461.737 560.853 474.753 547.833C552.86 469.73 552.86 343.097 474.753 264.992ZM366.667 201.344C366.667 159.418 318.17 136.11 285.432 162.3L154.974 266.667H100C44.7717 266.667 0 311.438 0 366.667V433.333C0 488.563 44.7717 533.333 100 533.333H154.974L285.432 637.7C318.17 663.89 366.667 640.58 366.667 598.657V201.344ZM196.62 318.725L300 236.021V563.98L196.62 481.277C184.799 471.82 170.112 466.667 154.974 466.667H100C81.5907 466.667 66.6667 451.743 66.6667 433.333V366.667C66.6667 348.257 81.5907 333.333 100 333.333H154.974C170.112 333.333 184.799 328.181 196.62 318.725Z" fill="#A6E3A1"/>
</svg>
