<svg width="800" height="800" viewBox="0 0 800 800" fill="none" xmlns="http://www.w3.org/2000/svg">
<path d="M460 312L637 489" stroke="#A6E3A1" stroke-width="66.6667" stroke-linecap="round" stroke-linejoin="round"/>
<path d="M637 312L460 489" stroke="#A6E3A1" stroke-width="66.6667" stroke-linecap="round" stroke-linejoin="round"/>
<path fill-rule="evenodd" clip-rule="evenodd" d="M287.432 162.051C320.17 135.86 368.667 159.169 368.667 201.094V598.407C368.667 640.331 320.17 663.641 287.432 637.451L156.974 533.084H102C46.7717 533.084 2 488.311 2 433.084V366.418C2 311.188 46.7717 266.417 102 266.417H156.974L287.432 162.051ZM302 235.771L198.62 318.475C186.799 327.932 172.112 333.084 156.974 333.084H102C83.5907 333.084 68.6667 348.008 68.6667 366.418V433.084C68.6667 451.494 83.5907 466.418 102 466.418H156.974C172.112 466.418 186.799 471.568 198.62 481.024L302 563.731V235.771Z" fill="#A6E3A1"/>
</svg>
